<?xml version="1.0" encoding="utf-8"?>
<!-- Generator: Adobe Illustrator 15.1.0, SVG Export Plug-In . SVG Version: 6.00 Build 0)  -->
<!DOCTYPE svg PUBLIC "-//W3C//DTD SVG 1.1//EN" "http://www.w3.org/Graphics/SVG/1.1/DTD/svg11.dtd">
<svg version="1.1" id="Layer_1" xmlns="http://www.w3.org/2000/svg" xmlns:xlink="http://www.w3.org/1999/xlink" x="0px" y="0px"
	 width="500px" height="500px" viewBox="0 0 500 500" enable-background="new 0 0 500 500" xml:space="preserve">
<g id="XMLID_2_">
	<g>
		<path fill="#010101" d="M199.835,107.602c0.09,4.899,2.832,15.398,5.054,19.931c1.458,0.505,1.977-0.875,2.999-0.637
			c-2.851-4.037-4.401-14.389-4.401-22.195C202.729,105.605,199.835,106.994,199.835,107.602z M478.082,313.561
			c0.055,29.049-10.204,53.193-20.323,74.986c-0.904,0.968-3.042,0.695-4.906,0.701c-2.628,29.428-5.054,68.673-28.033,77.092
			c-8.332,3.056-15.768-0.871-20.324-6.31c-10.154-12.117-13.328-34.586-17.519-52.562c-1.543-1.255-4.998-0.609-7.01-1.4
			c-6.132-9.835-14.485-34.546,0.702-39.948c-5.754-7.057,6.504-14.346,6.308-24.528c-17.152,14.155-33.507,35.174-56.769,45.552
			c-4.346,27.044-10.556,48.742-21.026,68.682c-9.67,18.431-26.594,37.341-51.159,37.844c-41.193,0.854-62.947-29.286-70.782-64.477
			c-2.138-9.588-6.027-21.283,2.103-25.229c-16.917-11.403-37.585-29.708-39.947-56.766c-0.869-9.986-0.223-20.388,5.607-25.231
			c7.078-1.338,15.096-0.414,21.725,0.701c-1.156-9.118-2.719-17.836-3.502-27.333c-3.702,0.799-7.738,4.5-11.916,4.204
			c-4.702-0.321-7.583-6.117-11.213-7.008c-2.726-0.665-5.55,0.588-8.41,0.7c-36.239,1.451-74.477-21.172-84.8-50.459
			c-10.338-5.103-21.109-13.436-18.221-29.436c-14.737,7.254-23.28-8.458-14.017-16.821c5.103-4.604,14.746-3.111,21.026,0
			c3.791-5.788,8.712-10.442,18.921-9.812c-0.077-8.249-5.698-14.184-2.803-23.126c17.366-9.503,22.517,15.18,25.23,29.433
			c10.856,2.384,18.446,10.442,14.717,25.231c7.892,3.791,17.359,6.005,28.734,6.306c0.295-18.158,20.542-16.363,37.844-17.52
			c2.643-25.658-5.705-45.862-21.025-57.467c-11.789,4.688-24.052-6.54-18.922-18.922c-3.602-3.476-14.212-3.441-20.323-2.102
			c2.221,7.589,11.507,8.123,14.717,14.717c-6.763-3.98-14.185-7.302-16.821-15.417c2.285-3.083,8.852-1.892,14.017-2.103
			c-21.747-15.159-50.382-23.443-58.167-52.561c-8.592-4.696-23.708-24.312-13.315-37.144c1.198-1.472,3.868-2.634,6.307-3.505
			c-1.71-16.477,11.864-26.323,26.63-19.623c17.121-16.546,55.196-9.047,69.381,4.905c4.473-3.475,12.945-3.329,14.718,2.804
			c18.48-8.418,36.191,4.393,36.442,23.126c4.381,1.695,7.344,4.801,9.11,9.11c6.293-2.614,5.012-10.442,12.615-10.512
			c14.149-0.126,12.439,25.923,3.504,32.939c3.869,7.07,1.051,15.895-8.411,15.418c-1.059,2.915-1.731,6.215-3.505,8.411
			c-2.74,0.763-5.138,1.872-9.11,1.401c-1.977,9.51-0.387,21.368,4.205,26.63c3.946-0.203,7.093-0.244,9.11,2.104
			c1.731,3.322-1.745,6.18,0,9.11c7.688-5.081,21.648-2.305,15.418,9.11c3.097-2.277,6.3-4.443,9.111-7.008
			c8.107,4.044,14.325,9.966,22.425,14.015c0.491,3.764-2.074,4.473-2.804,7.009c8.089-6.862,19.633-10.273,32.939-11.914
			c4.297,3.182,8.27,6.686,11.913,10.512c15.222-5.718,34.572-16.596,44.151-32.939c3.049-5.193,7.956-13.532,7.008-18.221
			c-1.471-7.294-12.354-4.912-17.519-9.812c-5.18-12.916,13.882-14.541,21.025-9.11c3.321-0.883,4.301-4.107,7.008-5.606
			c-1.527-5.944-5.243-9.715-4.205-18.223c6.446-12.846,22.084-4.254,23.828,7.009c15.241-10,23.645,11.003,9.109,17.521
			c2.88,11.494,19.021,8.41,30.135,8.41c9.791,11.459-5.558,21.13-16.819,22.426c-11.964,15.593-16.939,35.546-26.631,52.563
			c-9.655,16.952-21.81,30.423-35.742,42.75c9.824,6.994,19.253,14.387,27.334,23.127
			C434.609,227.906,477.984,260.298,478.082,313.561z M464.064,369.627c6.771-20.282,13.071-40.376,11.214-64.478
			c-3.124-40.55-37.073-69.893-82.696-65.877c-27.937,2.458-48.876,18.572-63.775,35.741
			c-15.985,18.424-26.357,40.957-34.341,65.878c-2.277-0.491-0.49-3.952-3.506-2.102c-21.472,15.207-51.88,21.466-86.901,23.127
			c16.749,22.907,50.151,35.069,87.604,32.938c33.113-1.878,58.252-20.203,77.089-39.244c3.952-3.995,17.9-15.551,19.624-19.624
			c2.179-5.144-0.653-12.216,2.803-15.417c1.92,8.759-1.133,18.444-2.803,25.929C405.35,362.463,429.647,371.105,464.064,369.627z
			 M462.663,372.428c-33.807,0.871-57.58-8.289-75.689-23.128c-1.478,4.6-3.405,8.747-6.307,11.916
			c14.772,18.789,39.98,30.358,75.688,25.93C458.221,382.002,460.946,377.719,462.663,372.428z M411.503,119.433
			c9.271-1.844,22.077-6.371,17.521-17.521c-9.341-3.315-13.406,2.312-22.426-0.7c-17.975-6-15.502-40.466-30.835-39.947
			c-4.199,0.148-7.204,4.345-7.711,7.007c-1.927,10.212,7.793,12.917,4.904,23.127c-1.086-1.017-1.471-2.734-1.4-4.905
			c-6.791,3.588-11.136,13.028-9.11,23.128c-7.604,26.967-27.149,42-51.861,51.86c8.285,12.741,13.995,28.053,14.718,48.358
			c8.879,0.701,15.656,3.504,22.425,6.307c13.962-12.7,26.717-25.923,36.444-43.451
			C393.774,155.406,398.623,134.633,411.503,119.433z M396.785,88.596c14.928-4.022,5.024-23.912-6.308-12.615
			C393.227,79.542,394.509,84.567,396.785,88.596z M359.643,104.714c0.205-5.404,2.411-8.802,3.504-13.316
			c-6.258-2.032-20.954-5.48-19.622,5.607C347.078,101.394,356.201,100.216,359.643,104.714z M375.061,241.375
			c-11.929-13.854-28.215-28.438-51.861-30.135c-5.453-0.386-14.463,1.268-18.923-0.7c2.277-0.057,4.311-0.357,5.609-1.402
			c-15.687-18.894-36.746-32.398-60.272-43.451c2.584-1.528,4.906,2.312,8.409,2.104c1.683-4.394,4.696-7.45,6.307-11.914
			c-6.02-4.954-12.508-9.448-19.621-13.315c-0.126,10.68,4.792,19.924,2.803,30.135c-9.139-2.305-15.508-7.386-25.229-9.11
			c-2.25,10.562,4.416,17.919,7.008,25.931c-8.837,11.948-23.022,18.564-36.442,25.931c8.668,6.958,16.329,15.838,17.52,28.733
			c2.327,25.124-20.016,39.457-35.041,49.058c1.037,26.764,7.232,48.364,16.82,66.578c42.925,0.645,76.349-8.213,102.322-24.529
			C309.113,291.766,331.616,256.101,375.061,241.375z M323.199,209.838c0.581-20.71-8.913-44.075-21.726-54.665
			c-10.868-8.985-36.323,3.273-41.349,14.717c22.37,8.705,37.606,24.536,53.262,39.947
			C316.662,209.838,319.929,209.838,323.199,209.838z M290.963,477.551c20.477-19.433,32.236-55.267,35.741-89.004
			c-22.596,13.05-68.162,9.581-91.808,0c2.137,11.613-0.827,23.296-4.206,32.236c-2.397,6.352-4.535,13.976-9.11,15.419
			c2.895-8.788,9.727-17.365,9.11-27.331c-18.515,2.509-33.059,8.998-41.348,21.726c7.352,32.798,28.685,58.525,63.774,60.971
			C270.112,492.753,282.355,485.725,290.963,477.551z M246.109,163.584c-2.06-6.111-0.525-15.826-4.905-19.622
			c-1.892,3.952-6.994,4.688-8.41,9.11C236.529,157.285,240.349,161.405,246.109,163.584z M246.81,170.593
			c-1.759-7.583-9.413-9.279-14.017-14.016c0.609,4.114-2.62,4.386-2.804,7.708C236.283,165.7,240.553,169.149,246.81,170.593z
			 M226.486,151.67c3.232-3.308,8.852-4.233,7.709-11.914c-2.768-3.995-9.7-1.29-12.614,0.701c-3.959-2.25-5.873-1.584-8.411,2.102
			c3.568,0.638,9.854-1.444,11.213,1.401c-5.192,13.484-16.525,22.86-30.835,21.024c-13.47-1.724-26.63-18.664-26.63-32.939
			c0-26.827,38.468-34.83,53.962-51.16c4.01-4.219,8.999-10.884,10.512-16.118c2.396-8.27-0.342-20.842-8.41-20.324
			c-6.636,0.427-7.226,10.772-11.916,11.914c-9.936,26.141-56.374,38.35-46.254,82.698c0.925,4.051,3.933,10.73,7.008,14.717
			c5.753,7.472,19.862,18.544,32.238,16.821c8.466-1.179,11.241-12.187,23.829-8.41c1.268-1.998,3.434-3.106,2.803-7.009
			C231.462,151.839,226.516,154.213,226.486,151.67z M232.093,406.769c1.451-5.088,0.372-12.713,0.7-18.923
			c-20.534,2.131-34.662,10.653-46.254,21.727c-0.127,6.202,0.721,11.431,2.101,16.119
			C198.474,417.534,211.979,406.987,232.093,406.769z M225.084,87.896c2.005-2.6,4.416-8.011,0-9.812
			c-13.813,19.833-43.85,23.43-54.664,46.255c8.262,1.955,7.373-5.235,9.812-9.11c3.112,1.03,4.114,0,7.709,0
			c2.86-1.809,2.488-6.855,4.905-9.111c3.147,0.343,5.249-0.35,7.71-0.701c2.319-1.417,2.124-5.354,4.205-7.009
			c3.743,0.779,6.932,0.918,9.812-0.7c1.332-2.404,1.984-5.495,2.803-8.41C220.916,89.801,222.492,88.345,225.084,87.896z
			 M227.888,188.814c-4.513-6.701-7.386-15.034-8.41-25.23c-16.567,11.003-34.972,20.155-49.757,32.939c0,3.505,0,7.008,0,10.512
			c7.737,1.844,15.873,3.287,21.725,7.008C205.286,207.33,218.827,200.307,227.888,188.814z M167.618,295.338
			c18.208-9.552,44.04-25.313,41.348-51.159c-2.896-27.794-35.006-42.96-66.578-31.537
			C164.877,224.87,175.508,265.301,167.618,295.338z M196.352,73.178c5.999-5.859,20.534-23.533,7.008-27.332
			c-13.891-3.889-20.232,17.022-28.032,20.324c3.56,18.158-10.568,29.771-21.726,30.836c-35.208,3.378-37.312-52.913-2.101-51.861
			c-0.653-12.796,6.18-18.116,11.913-24.529c-1.885-4.723-10.246-2.704-12.615,0c-10.288-7.344-20.737-14.184-35.741-15.418
			C85.547,2.779,71.762,24.385,64.599,46.546c1.023,2.951,5.376,2.573,6.307,5.607c-3.413,1.03-6.068-5.222-7.008-2.104
			c-1.899,4.85-1.92,14.605-0.701,20.324c1.121,2.383,5.872,1.135,6.308,4.205c-2.523,0.188-3.379-1.291-5.607-1.402
			c8.423,28.727,37.255,37.038,59.57,51.861c-2.081-5.86-7.33-8.549-7.008-16.821c8.067-3.083,19.105,2.167,24.529,6.308
			c-8.193-1.045-15.215-6.581-23.127-5.607c1.816,8.698,7.029,13.995,11.915,19.624c1.976-3.189,8.935-7.989,12.616-4.905
			c-18.264,0.679-16.19,27.556,1.402,25.229c7.358-0.974,7.54-9.917,12.615-11.914c-1.563,4.746-4.015,8.599-7.009,11.914
			c11.676,10.05,20.135,23.316,21.726,43.451c10.072-6.279,19.721-12.986,29.436-19.623c-25.25-6.244-40.908-22.643-38.546-49.757
			C164.155,98.38,183.975,85.261,196.352,73.178z M200.557,43.743c1.745-32.014-50.79-31.495-47.656,1.401
			c11.978,1.57,18.193,8.909,22.425,18.222C184.052,57.142,187.436,45.572,200.557,43.743z M169.02,286.229
			c0.154-27.018-5.234-48.498-16.82-63.775c-14.395,7.113-37.284,3.771-51.162-1.402c-1.737,0.834-0.847,4.297-4.205,3.504
			c2.754-8.15,6.609-17.066,1.402-23.828c-7.604-9.867-30.619-4.366-28.033,8.41c2.123,10.499,18.789,3.379,21.726,0
			c-3.603,9.939-22.854,10.611-23.829-0.7c-0.728-8.445,7.485-13.813,16.819-14.717c-3.145-12.881-4.688-34.362-21.023-29.436
			c-3.665,9.896,6.433,19.083,2.102,27.333c-1.857,0.224,0.659-3.925-2.102-2.803c-22.566-5.389-20.177,32.875-6.309,32.938
			c11.41,0.057,6.344-16.237,5.607-23.126c6.819,8.557,4.941,25.265-5.607,25.229c-10.351-0.036-12.229-14.087-12.615-25.931
			c-9.721-4.113-24.984-3.049-21.726,11.915c4.97,6.987,16.141-1.675,21.025,1.402c-0.126,3.307-3.778-1.256-3.505,2.101
			c-3.734,19.904,13.142,25.132,25.23,31.538c-3.098,1.471-6.209-2.965-6.307,0C74.675,278.877,121.637,300.111,169.02,286.229z
			 M153.601,291.835c2.634,8.094,14.682,6.229,14.716-2.803C163.376,289.928,158.486,290.882,153.601,291.835z M147.994,95.604
			c35.398,3.441,33.863-54.426-1.401-48.357C119.303,51.943,122.126,93.095,147.994,95.604z M150.096,221.051
			c-2.523-8.15-19.771-11.97-16.821,3.504C140.13,224.64,145.114,222.845,150.096,221.051z M68.801,31.83
			c1.885-7.505,9.777-12.588,11.213-18.221c-14.087-4.71-24.073,3.588-23.127,18.221C60.686,30.52,64.744,31.487,68.801,31.83z
			 M63.194,44.445c0.89-4.255,3.035-7.239,4.206-11.214c-4.612-0.407-5.9-0.407-10.513,0C57.602,38.362,58.954,42.847,63.194,44.445
			z M55.486,34.633c-15.573,4.751-4.878,33.954,5.607,33.64c-1.739-6.42-0.484-15.887,1.401-21.025
			C59.095,44.108,56.116,40.541,55.486,34.633z"/>
		<path fill="#D6A563" d="M204.887,127.533c-2.22-4.534-4.961-15.033-5.053-19.931c0-0.608,2.895-1.997,3.651-2.901
			c0,7.807,1.548,18.158,4.401,22.195C206.863,126.658,206.345,128.038,204.887,127.533z"/>
		<path fill="#669BC7" d="M475.278,305.149c1.857,24.102-4.443,44.193-11.214,64.478c-34.417,1.479-58.715-7.163-75.688-23.129
			c1.667-7.484,4.723-17.17,2.803-25.929c-3.453,3.203-0.622,10.273-2.803,15.417c-1.724,4.073-15.672,15.629-19.624,19.624
			c-18.837,19.041-43.976,37.366-77.09,39.244c-37.452,2.132-70.853-10.026-87.603-32.938c35.021-1.661,65.429-7.92,86.901-23.127
			c3.016-1.851,1.228,1.61,3.506,2.102c7.983-24.92,18.354-47.451,34.341-65.878c14.899-17.169,35.839-33.283,63.772-35.741
			C438.204,235.257,472.154,264.6,475.278,305.149z"/>
		<path fill="#669BC7" d="M386.974,349.3c18.109,14.839,41.881,23.999,75.689,23.128c-1.718,5.291-4.444,9.574-6.309,14.718
			c-35.707,4.429-60.915-7.142-75.688-25.93C383.568,358.048,385.496,353.899,386.974,349.3z"/>
		<path fill="#FFD035" d="M429.023,101.913c4.557,11.149-8.249,15.677-17.521,17.521c-12.88,15.2-17.731,35.973-27.332,53.263
			c-9.728,17.527-22.482,30.751-36.444,43.451c-6.769-2.804-13.546-5.607-22.425-6.308c-0.723-20.303-6.433-35.615-14.718-48.357
			c24.71-9.862,44.258-24.893,51.861-51.861c-2.025-10.1,2.319-19.54,9.11-23.128c-0.07,2.173,0.314,3.891,1.4,4.905
			c2.889-10.211-6.831-12.915-4.904-23.126c0.507-2.663,3.512-6.861,7.711-7.008c15.333-0.518,12.86,33.948,30.835,39.947
			C415.617,104.225,419.682,98.596,429.023,101.913z"/>
		<path fill="#FFD035" d="M390.479,75.982c11.333-11.298,21.237,8.593,6.309,12.615C394.509,84.567,393.227,79.542,390.479,75.982z"
			/>
		<path fill="#FFD035" d="M363.146,91.398c-1.093,4.514-3.299,7.912-3.504,13.316c-3.441-4.498-12.564-3.322-16.118-7.708
			C342.191,85.918,356.889,89.367,363.146,91.398z"/>
		<path fill="#FFFFFF" d="M323.199,211.24c23.646,1.695,39.933,16.28,51.861,30.135c-43.444,14.726-65.947,50.391-80.595,93.912
			c-25.972,16.314-59.396,25.174-102.321,24.527c-9.588-18.214-15.783-39.813-16.82-66.577
			c15.025-9.601,37.367-23.933,35.041-49.058c-1.191-12.896-8.852-21.775-17.521-28.733c13.421-7.366,27.605-13.982,36.442-25.931
			c-2.593-8.011-9.259-15.369-7.008-25.931c9.72,1.724,16.091,6.805,25.229,9.11c1.989-10.211-2.93-19.455-2.804-30.135
			c7.113,3.87,13.603,8.361,19.621,13.315c-1.609,4.463-4.624,7.52-6.307,11.914c-3.503,0.211-5.823-3.631-8.408-2.104
			c23.525,11.052,44.585,24.557,60.271,43.451c-1.297,1.044-3.33,1.347-5.607,1.402C308.736,212.508,317.746,210.855,323.199,211.24
			z"/>
		<path fill="#FFFFFF" d="M301.474,155.175c12.812,10.589,22.307,33.954,21.726,54.664c-3.271,0-6.537,0-9.812,0
			c-15.655-15.411-30.892-31.242-53.262-39.948C265.15,158.446,290.605,146.19,301.474,155.175z"/>
		<path fill="#669BC7" d="M326.704,388.548c-3.505,33.739-15.265,69.57-35.741,89.007c-8.607,8.17-20.851,15.2-37.846,14.014
			c-35.089-2.445-56.423-28.174-63.774-60.971c8.292-12.729,22.833-19.216,41.348-21.726c0.617,9.965-6.217,18.545-9.11,27.334
			c4.577-1.445,6.715-9.071,9.11-15.42c3.378-8.942,6.343-20.625,4.206-32.238C258.542,398.128,304.108,401.597,326.704,388.548z"/>
		<path fill="#FFFFFF" d="M241.203,143.962c4.381,3.798,2.845,13.511,4.905,19.622c-5.76-2.179-9.58-6.299-13.315-10.512
			C234.209,148.648,239.312,147.914,241.203,143.962z"/>
		<path fill="#FFFFFF" d="M232.793,156.575c4.604,4.738,12.258,6.434,14.017,14.016c-6.259-1.444-10.527-4.892-16.821-6.307
			C230.172,160.962,233.402,160.689,232.793,156.575z"/>
		<path fill="#D6A563" d="M234.195,139.756c1.143,7.681-4.477,8.606-7.709,11.914c0.029,2.543,4.976,0.168,4.205,3.505
			c0.63,3.903-1.535,5.012-2.803,7.009c-12.588-3.778-15.362,7.231-23.829,8.41c-12.377,1.724-26.484-9.349-32.238-16.82
			c-3.076-3.988-6.083-10.667-7.008-14.718c-10.12-44.348,36.316-56.557,46.254-82.698c4.689-1.141,5.278-11.486,11.916-11.913
			c8.065-0.518,10.807,12.054,8.41,20.323c-1.514,5.235-6.504,11.9-10.512,16.119c-15.494,16.329-53.962,24.333-53.962,51.16
			c0,14.274,13.161,31.215,26.63,32.938c14.312,1.836,25.644-7.54,30.835-21.024c-1.359-2.846-7.646-0.764-11.213-1.401
			c2.538-3.687,4.45-4.352,8.411-2.102C224.496,138.467,231.428,135.76,234.195,139.756z"/>
		<path fill="#669BC7" d="M232.793,387.846c-0.33,6.21,0.751,13.835-0.7,18.923c-20.113,0.216-33.619,10.766-43.451,18.923
			c-1.38-4.689-2.229-9.917-2.102-16.119C198.131,398.499,212.26,389.977,232.793,387.846z"/>
		<path fill="#FFFFFF" d="M225.084,78.083c4.416,1.801,2.005,7.212,0,9.812c-2.592,0.449-4.169,1.905-7.708,1.401
			c-0.819,2.915-1.472,6.006-2.803,8.41c-2.88,1.619-6.069,1.479-9.812,0.7c-2.082,1.655-1.886,5.593-4.205,7.009
			c-2.461,0.351-4.562,1.044-7.71,0.701c-2.418,2.256-2.047,7.302-4.905,9.111c-3.595,0-4.597,1.03-7.709,0
			c-2.438,3.875-1.548,11.066-9.812,9.11C181.234,101.513,211.272,97.917,225.084,78.083z"/>
		<path fill="#FFFFFF" d="M219.478,163.584c1.024,10.196,3.897,18.53,8.41,25.23c-9.062,11.494-22.603,18.516-36.442,25.229
			c-5.853-3.721-13.988-5.165-21.725-7.008c0-3.505,0-7.009,0-10.512C184.506,183.74,202.912,174.587,219.478,163.584z"/>
		<path fill="#FFFFFF" d="M208.966,244.179c2.691,25.846-23.142,41.607-41.348,51.159c7.892-30.037-2.74-70.468-25.229-82.696
			C173.96,201.219,206.07,216.385,208.966,244.179z"/>
		<path fill="#FFD035" d="M203.358,45.846c13.526,3.799-1.009,21.473-7.008,27.332c-12.377,12.083-32.197,25.202-34.341,49.758
			c-2.362,27.115,13.293,43.515,38.546,49.757c-9.715,6.637-19.364,13.344-29.436,19.623c-1.59-20.135-10.049-33.4-21.725-43.451
			c2.994-3.315,5.445-7.17,7.009-11.914c-5.074,1.997-5.256,10.939-12.616,11.914c-17.59,2.327-19.666-24.55-1.401-25.229
			c-3.68-3.084-10.639,1.716-12.615,4.905c-4.885-5.629-10.1-10.926-11.915-19.624c7.912-0.974,14.935,4.562,23.126,5.607
			c-5.423-4.143-16.461-9.391-24.528-6.308c-0.323,8.27,4.926,10.961,7.007,16.821c-22.313-14.823-51.144-23.134-59.569-51.861
			c2.228,0.112,3.084,1.591,5.606,1.402c-0.434-3.07-5.187-1.822-6.309-4.205c-1.219-5.719-1.198-15.475,0.702-20.324
			c0.938-3.119,3.595,3.133,7.008,2.104c-0.933-3.035-5.283-2.657-6.306-5.607c7.162-22.16,20.947-43.766,50.459-41.349
			c15.005,1.234,25.455,8.074,35.741,15.418c2.37-2.704,10.73-4.723,12.616,0c-5.733,6.413-12.566,11.733-11.914,24.529
			c-35.209-1.051-33.107,55.24,2.102,51.861c11.157-1.065,25.286-12.678,21.725-30.836
			C183.126,62.869,189.468,41.957,203.358,45.846z M140.985,132.749c1.878-1.787,3.692,0.427,6.307,0
			c-3.518-5.978-12.727-0.498-12.615,5.606c3.834,0.799,1.759-4.309,4.905-4.205c-0.688,3.917,4.997,8.291,7.007,4.905
			C143.642,138.04,140.819,136.89,140.985,132.749z"/>
		<path fill="#FFFFFF" d="M152.901,45.145c-3.133-32.895,49.401-33.415,47.656-1.401c-13.12,1.829-16.505,13.399-25.231,19.624
			C171.094,54.053,164.877,46.715,152.901,45.145z M189.343,36.035c2.859,0.295,4.421-0.715,4.206-3.505
			c-0.75-3.392-6.924-2.496-5.607,2.101C188.137,35.362,188.733,35.817,189.343,36.035z"/>
		<path fill="#010101" d="M193.546,32.53c0.218,2.788-1.344,3.798-4.205,3.505c-0.61-0.218-1.206-0.672-1.401-1.401
			C186.624,30.036,192.797,29.138,193.546,32.53z"/>
		<path fill="#FFD035" d="M152.2,222.453c11.583,15.277,16.974,36.758,16.82,63.775c-47.383,13.883-94.345-7.354-109.329-41.35
			c0.098-2.964,3.209,1.472,6.307,0c-12.089-6.405-28.965-11.633-25.23-31.537c-0.273-3.357,3.378,1.205,3.505-2.102
			c-4.884-3.076-16.056,5.585-21.025-1.402c-3.259-14.962,12.005-16.028,21.726-11.915c0.386,11.844,2.264,25.896,12.615,25.931
			c10.549,0.035,12.427-16.671,5.607-25.229c0.736,6.89,5.802,23.183-5.607,23.127c-13.868-0.062-16.257-38.328,6.309-32.939
			c2.761-1.122,0.244,3.027,2.102,2.803c4.331-8.248-5.768-17.436-2.102-27.332c16.337-4.927,17.878,16.553,21.024,29.436
			c-9.335,0.904-17.549,6.272-16.821,14.717c0.975,11.312,20.226,10.638,23.829,0.7c-2.937,3.379-19.603,10.499-21.726,0
			c-2.586-12.775,20.429-18.277,28.033-8.41c5.208,6.763,1.352,15.677-1.402,23.828c3.356,0.791,2.466-2.671,4.205-3.504
			C114.916,226.224,137.805,229.566,152.2,222.453z"/>
		<path fill="#FFFFFF" d="M168.317,289.032c-0.034,9.032-12.082,10.896-14.716,2.803
			C158.486,290.882,163.376,289.928,168.317,289.032z"/>
		<path fill="#FFFFFF" d="M146.593,47.248c35.264-6.069,36.8,51.797,1.401,48.358C122.126,93.095,119.303,51.943,146.593,47.248z
			 M145.893,80.887c2.858,0.294,4.422-0.714,4.205-3.505c-0.749-3.392-6.924-2.494-5.606,2.104
			C144.771,80.124,145.218,80.691,145.893,80.887z"/>
		<path fill="#010101" d="M150.096,77.382c0.218,2.789-1.345,3.799-4.206,3.505c-0.672-0.196-1.121-0.764-1.401-1.401
			C143.173,74.888,149.347,73.99,150.096,77.382z"/>
		<path fill="#FFD035" d="M147.294,132.749c-2.615,0.427-4.43-1.787-6.307,0c-0.168,4.142,2.657,5.292,5.607,6.308
			c-2.012,3.384-7.696-0.989-7.009-4.905c-3.146-0.105-1.072,5.005-4.905,4.206C134.565,132.25,143.774,126.769,147.294,132.749z"/>
		<path fill="#FFFFFF" d="M133.278,224.555c-2.951-15.474,14.296-11.654,16.819-3.504
			C145.114,222.845,140.13,224.64,133.278,224.555z"/>
		<path fill="#FFFFFF" d="M80.015,13.609c-1.437,5.634-9.329,10.715-11.213,18.221c-4.057-0.343-8.115-1.31-11.914,0
			C55.942,17.197,65.928,8.898,80.015,13.609z"/>
		<path fill="#FFFFFF" d="M67.4,33.231c-1.171,3.975-3.315,6.959-4.206,11.214c-4.24-1.598-5.592-6.083-6.307-11.214
			C61.5,32.824,62.788,32.824,67.4,33.231z"/>
		<path fill="#FFFFFF" d="M61.093,68.272c-10.485,0.315-21.18-28.888-5.607-33.641c0.63,5.908,3.609,9.476,7.008,12.616
			C60.609,52.384,59.354,61.852,61.093,68.272z"/>
	</g>
	<g>
		<path fill="none" stroke="#D6A563" stroke-linejoin="round" stroke-miterlimit="10" d="M203.485,104.701
			c0,7.807,1.548,18.158,4.401,22.195c-1.023-0.238-1.541,1.142-3,0.637c-2.22-4.534-4.961-15.033-5.053-19.931
			C199.835,106.994,202.729,105.605,203.485,104.701z"/>
	</g>
</g>
<path fill="none" stroke="#010101" stroke-width="0.5" stroke-linecap="round" stroke-linejoin="round" d="M274.767,96.803"/>
<path fill="none" stroke="#010101" stroke-width="0.5" stroke-linecap="round" stroke-linejoin="round" d="M280.375,91.197"/>
<path fill="none" stroke="#010101" stroke-width="0.5" stroke-linecap="round" stroke-linejoin="round" d="M280.375,91.197"/>
<path fill="#EF3D25" d="M209.648,128.194c-0.841,0.113-17.177,2.8-19.153,11.005c-1.573,6.537,5.536,19.816,5.536,24.399
	c4.862,0.901,9.493-2.008,13.98-3.388c4.489-1.379-3.46-11.632-2.862-15.131c0.598-3.499,2.973-1.707,4.496-3.207
	c1.524-1.5,8.452-5.854,6.355-11.681C217.332,128.335,214.732,127.515,209.648,128.194z"/>
<path fill="none" stroke="#010101" stroke-width="1.5" stroke-linecap="round" stroke-miterlimit="10" d="M213.15,141.376
	c0,0-9.433,3.782-10.522,6.972"/>
<path fill="none" stroke="#010101" stroke-width="1.5" stroke-linecap="round" stroke-miterlimit="10" d="M197.846,131.557
	c3.877,0.45,8.595-0.095,10.682,1.903"/>
</svg>
